{
  "asset": {
    "version": "2.0",
    "generator": "babylon.js glTF exporter for 3dsmax 2023 v20221031.2"
  },
  "scene": 0,
  "scenes": [
    {
      "nodes": [
        0
      ]
    }
  ],
  "nodes": [
    {
      "mesh": 0,
      "translation": [
        -4.857418,
        4.97677647E-05,
        4.708061
      ],
      "rotation": [
        0.7071068,
        0.0,
        0.0,
        0.7071067
      ],
      "name": "ground_living_01",
      "extras": {
        "paramrenderwidth": 2048,
        "paramrenderheight": 2048,
        "paramfacecolor": [
          0.7058824,
          0.20784314,
          0.09019608
        ],
        "paramedgecolor": [
          1.0,
          0.7764706,
          0.0
        ],
        "paramedgewidth": 1
      }
    }
  ],
  "meshes": [
    {
      "primitives": [
        {
          "attributes": {
            "POSITION": 1,
            "NORMAL": 2,
            "TEXCOORD_0": 3,
            "TEXCOORD_1": 4
          },
          "indices": 0,
          "material": 0
        }
      ],
      "name": "ground_living_01"
    }
  ],
  "accessors": [
    {
      "bufferView": 0,
      "componentType": 5123,
      "count": 24,
      "type": "SCALAR",
      "name": "accessorIndices"
    },
    {
      "bufferView": 1,
      "componentType": 5126,
      "count": 10,
      "max": [
        1.74682426,
        2.65645218,
        5E-05
      ],
      "min": [
        -1.74682426,
        -2.56136,
        4.95313725E-05
      ],
      "type": "VEC3",
      "name": "accessorPositions"
    },
    {
      "bufferView": 1,
      "byteOffset": 120,
      "componentType": 5126,
      "count": 10,
      "type": "VEC3",
      "name": "accessorNormals"
    },
    {
      "bufferView": 2,
      "componentType": 5126,
      "count": 10,
      "type": "VEC2",
      "name": "accessorUVs"
    },
    {
      "bufferView": 2,
      "byteOffset": 80,
      "componentType": 5126,
      "count": 10,
      "type": "VEC2",
      "name": "accessorUV2s"
    }
  ],
  "bufferViews": [
    {
      "buffer": 0,
      "byteLength": 48,
      "name": "bufferViewScalar"
    },
    {
      "buffer": 0,
      "byteOffset": 48,
      "byteLength": 240,
      "byteStride": 12,
      "name": "bufferViewFloatVec3"
    },
    {
      "buffer": 0,
      "byteOffset": 288,
      "byteLength": 160,
      "byteStride": 8,
      "name": "bufferViewFloatVec2"
    }
  ],
  "buffers": [
    {
      "uri": "t2_a11_furnituresAll_02.bin",
      "byteLength": 448
    }
  ],
  "materials": [
    {
      "pbrMetallicRoughness": {
        "baseColorFactor": [
          0.9,
          0.9,
          0.9,
          1.0
        ],
        "metallicFactor": 0.0
      },
      "occlusionTexture": {
        "index": 0,
        "texCoord": 1
      },
      "emissiveTexture": {
        "index": 1
      },
      "emissiveFactor": [
        1.0,
        1.0,
        1.0
      ],
      "name": "ground"
    }
  ],
  "textures": [
    {
      "sampler": 0,
      "source": 0,
      "name": "ground_ao.png"
    },
    {
      "sampler": 0,
      "source": 1,
      "name": "ground_lighting.png"
    }
  ],
  "images": [
    {
      "uri": "ground_ao.png"
    },
    {
      "uri": "ground_lighting.png"
    }
  ],
  "samplers": [
    {
      "magFilter": 9729,
      "minFilter": 9987
    }
  ]
}